<svg xmlns="http://www.w3.org/2000/svg" id="site-logo" viewBox="0 0 69.99 238.46"><path d="M54.09 85.42a38.7 38.7 0 0 0-4.37-2.11L63.32 48 46.83 58.36s-1.56.26.54-4.62S68.85 0 68.85 0L29.58 76s-2.62 2.79 4.92-.89l7.5-3.72-3.16 9.11a35.78 35.78 0 0 0-17.61 2.14c-8.32 3.42-14.94 11.2-17.7 20.81-2.34 8.14-2.44 18.16-.27 27.51l.16.68 3.06-.71-.16-.68c-2.05-8.84-2-18.29.23-25.93C9 95.62 15 88.6 22.43 85.54a32.36 32.36 0 0 1 15.35-2l-2.79 8a21.21 21.21 0 0 0-12.7 4.08 21.32 21.32 0 0 0-8.29 18.5 25.32 25.32 0 0 0 2.25 8.22v.44h.22c2.76 5.86 7.31 11 11.27 14.68l.51.48 2.14-2.29-.51-.48a51.05 51.05 0 0 1-9.51-11.66c5 1 10.35 2.65 12.95 6.67 5.05 7.82-1 16.47-8.24 24.65-1.47 1.66-4.53 3.92-6.92 3.78a2.55 2.55 0 0 1-2-1.23c-.45-.66-.26-1.17.68-2.72a9.26 9.26 0 0 0 1.16-2.73 6.32 6.32 0 0 0-.28-3.58l.12-.13c.39-.44 1.06-1.06 1.72-1.65 2.48-2.27 6.24-5.7 3.78-8.55a6.93 6.93 0 0 0-9.17-1 6 6 0 0 0-2.28 3.49c-.52 2.43.66 4.56 1.7 6.43.85 1.53 1.65 3 1.37 4.26a7 7 0 0 1-.9 1.82c-.89 1.47-2.24 3.69-.58 6.11a5.68 5.68 0 0 0 4.43 2.59h.41c3.77 0 7.58-3.17 9.07-4.84 5.05-5.69 15.57-17.54 8.53-28.43-3.67-5.68-11.23-7.37-17.3-8.48a21.56 21.56 0 0 1-1.53-6.17 18.12 18.12 0 0 1 7.08-15.77 17.92 17.92 0 0 1 9.71-3.41l-5.08 14.49 13.2-5.9 2.25-5.83c4.93 3.29 8.35 9.36 9.36 16.9.93 6.91-1.19 12.19-3.66 18.35-.4 1-.81 2-1.22 3.07l-.25.65 2.93 1.13.25-.65c.41-1.05.82-2.07 1.22-3.07 2.62-6.53 4.88-12.17 3.85-19.9-1.17-8.75-5.32-15.78-11.32-19.48l3.15-8.16a35.84 35.84 0 0 1 3.95 1.92C62 93.5 67 103.16 66.85 115.36c-.2 12.73-7.23 22.5-14.66 32.83-4.72 6.56-9.6 13.35-12.64 21-.27.69-.54 1.39-.8 2.1-1 2.75-2.09 5.58-3.92 7.72-2.31 2.71-7.52 5-12.68 5.66l4.54-10.81-9.29 4.33-2.08 6.16c-.3-.08-.6-.15-.88-.25a6.29 6.29 0 0 1-4.65-6.21c-.22-5.93-.09-13.69-.08-13.77v-.7H7.27l-.7.08v.7c0 1.92-.1 8.6.09 13.84a9.37 9.37 0 0 0 6.76 9.06c.29.1.6.18.91.27L5.64 213l6.11-4L0 238.46l22.94-40.67-9.09 6.62 6.92-16.46c6.44-.38 13.3-3.21 16.44-6.89 2.18-2.56 3.35-5.66 4.51-8.77.24-.65.48-1.29.74-1.93 2.9-7.3 7.66-13.93 12.27-20.33 7.39-10.27 15-20.89 15.25-34.61.22-13.42-5.43-24.06-15.89-30zM15 141.21a2.91 2.91 0 0 1 1.11-1.65 3.52 3.52 0 0 1 2.12-.67 3.68 3.68 0 0 1 2.77 1.18c.13.32-.39 1.3-3.54 4.18-.41.38-.81.74-1.17 1.09-.84-1.48-1.59-2.88-1.29-4.13z"/></svg>